<svg width="214" height="178" viewBox="0 0 214 178" fill="none" xmlns="http://www.w3.org/2000/svg">
<path d="M124.279 23.6036C110.566 23.1268 97.5056 18.7006 85.0343 13.857C72.563 9.01342 60.2103 3.64646 46.8258 1.08058C38.217 -0.569971 28.3709 -0.803041 21.436 3.81173C14.7597 8.26124 12.6027 15.9207 11.4437 23.0357C10.5708 28.3878 10.058 34.0218 12.448 39.0306C14.1092 42.5097 17.0543 45.4337 19.0926 48.7666C26.1843 60.3607 21.1712 74.6584 13.4884 85.9793C9.88639 91.2911 5.70174 96.3614 2.91974 102.01C0.137739 107.659 -1.14838 114.14 1.28614 119.908C3.69734 125.629 9.44568 129.917 15.6729 132.936C28.3201 139.07 43.2174 140.825 57.7546 141.818C89.9245 144.02 122.264 143.066 154.519 142.113C166.456 141.759 178.444 141.401 190.187 139.556C196.708 138.53 203.44 136.905 208.175 132.977C214.184 127.991 215.674 119.55 211.646 113.297C204.891 102.811 186.22 100.207 181.493 88.9541C178.896 82.7587 181.563 75.8598 185.341 70.1136C193.443 57.7906 207.023 46.9783 207.737 32.8924C208.228 23.2179 201.7 13.5286 191.606 8.94985C181.027 4.15286 166.354 4.7546 158.553 12.698C150.512 20.8766 136.388 24.0231 124.279 23.6036Z" fill="#F2F2F2"/>
<path d="M102.442 174.19C138.013 174.19 166.848 170.289 166.848 165.477C166.848 160.665 138.013 156.765 102.442 156.765C66.8723 156.765 38.0369 160.665 38.0369 165.477C38.0369 170.289 66.8723 174.19 102.442 174.19Z" fill="#F2F2F2"/>
<path d="M137.589 61.4074H136.682C136.414 61.4074 136.197 61.6246 136.197 61.8926V76.3937C136.197 76.6617 136.414 76.879 136.682 76.879H137.589C137.857 76.879 138.075 76.6617 138.075 76.3937V61.8926C138.075 61.6246 137.857 61.4074 137.589 61.4074Z" fill="#3A3768"/>
<path d="M74.3809 49.2857H74.2983C74.0303 49.2857 73.813 49.5029 73.813 49.7709V53.8941C73.813 54.1621 74.0303 54.3793 74.2983 54.3793H74.3809C74.6489 54.3793 74.8661 54.1621 74.8661 53.8941V49.7709C74.8661 49.5029 74.6489 49.2857 74.3809 49.2857Z" fill="#3A3768"/>
<path d="M74.4762 58.6127H74.2601C73.9921 58.6127 73.7749 58.8299 73.7749 59.0979V66.9926C73.7749 67.2606 73.9921 67.4778 74.2601 67.4778H74.4762C74.7442 67.4778 74.9614 67.2606 74.9614 66.9926V59.0979C74.9614 58.8299 74.7442 58.6127 74.4762 58.6127Z" fill="#3A3768"/>
<path d="M74.4381 70.5797H74.2792C74.0112 70.5797 73.794 70.797 73.794 71.0649V79.0359C73.794 79.3039 74.0112 79.5211 74.2792 79.5211H74.4381C74.7061 79.5211 74.9233 79.3039 74.9233 79.0359V71.0649C74.9233 70.797 74.7061 70.5797 74.4381 70.5797Z" fill="#3A3768"/>
<path d="M128.949 32.4538H82.6697C78.1071 32.4538 74.4084 36.1525 74.4084 40.7151V151.828C74.4084 156.39 78.1071 160.089 82.6697 160.089H128.949C133.511 160.089 137.21 156.39 137.21 151.828V40.7151C137.21 36.1525 133.511 32.4538 128.949 32.4538Z" fill="#3A3768"/>
<path d="M128.926 35H121.598V35.8666C121.598 36.9561 121.158 38.0009 120.374 38.7711C119.59 39.5412 118.527 39.9736 117.419 39.9731H94.1133C93.0051 39.9736 91.9421 39.5412 91.1583 38.7711C90.3745 38.0009 89.9341 36.9561 89.9341 35.8666V35H83.0737C80.2716 35 78 37.2332 78 39.9879V151.012C78 152.335 78.5345 153.604 79.486 154.539C80.4375 155.474 81.728 156 83.0737 156H128.926C131.728 156 134 153.767 134 151.012V39.9964C134.002 38.672 133.469 37.4012 132.517 36.4639C131.565 35.5267 130.273 35 128.926 35Z" fill="#F35C58"/>
<path d="M107.701 36.2656H100.572C100.119 36.2656 99.7516 36.6327 99.7516 37.0855V37.2254C99.7516 37.6783 100.119 38.0454 100.572 38.0454H107.701C108.154 38.0454 108.521 37.6783 108.521 37.2254V37.0855C108.521 36.6327 108.154 36.2656 107.701 36.2656Z" fill="#E6E8EC"/>
<path d="M110.858 38.1661C111.417 38.1661 111.869 37.7137 111.869 37.1555C111.869 36.5973 111.417 36.1448 110.858 36.1448C110.3 36.1448 109.848 36.5973 109.848 37.1555C109.848 37.7137 110.3 38.1661 110.858 38.1661Z" fill="#E6E8EC"/>
<path opacity="0.1" d="M183.101 164.856C186.253 164.856 188.807 164.408 188.807 163.856C188.807 163.304 186.253 162.856 183.101 162.856C179.95 162.856 177.395 163.304 177.395 163.856C177.395 164.408 179.95 164.856 183.101 164.856Z" fill="#F35C58"/>
<path opacity="0.1" d="M19.3003 172.768C22.4516 172.768 25.0062 172.32 25.0062 171.768C25.0062 171.216 22.4516 170.768 19.3003 170.768C16.1489 170.768 13.5943 171.216 13.5943 171.768C13.5943 172.32 16.1489 172.768 19.3003 172.768Z" fill="#F35C58"/>
<path opacity="0.1" d="M41.3719 177.94C44.5232 177.94 47.0779 177.492 47.0779 176.94C47.0779 176.388 44.5232 175.94 41.3719 175.94C38.2206 175.94 35.666 176.388 35.666 176.94C35.666 177.492 38.2206 177.94 41.3719 177.94Z" fill="#F35C58"/>
<path d="M170.611 175.628C175.316 175.628 179.131 174.983 179.131 174.188C179.131 173.392 175.316 172.747 170.611 172.747C165.906 172.747 162.091 173.392 162.091 174.188C162.091 174.983 165.906 175.628 170.611 175.628Z" fill="#F35C58"/>
<path d="M59.7993 94.2236C59.8612 94.2834 59.9551 94.2954 60.0302 94.2532C59.9522 94.2544 59.8744 94.2444 59.7993 94.2236Z" fill="url(#paint0_linear)"/>
<path d="M85.189 52.0592C84.7419 51.9278 84.1063 51.7138 83.3371 51.4447C84.1353 50.4023 84.7186 49.2118 85.0534 47.9423L84.9877 47.9678C85.0089 47.8894 85.0322 47.8131 85.0534 47.7347C83.5829 48.3407 81.9535 47.3109 80.9174 45.9951C79.8814 44.6794 79.1758 43.0415 78.0422 41.8274C77.5689 41.3466 77.0596 40.9025 76.5188 40.499C76.184 40.2362 75.8217 39.9629 75.4128 39.9502C74.7517 39.9311 74.2326 40.5858 73.5948 40.7829C73.1743 40.879 72.7359 40.8629 72.3235 40.7363C70.6772 40.3528 69.0902 39.6472 67.4185 39.465C66.52 39.3519 65.6074 39.4558 64.7573 39.768C63.9097 40.0943 63.5284 40.7405 62.8503 41.2511C62.1151 41.8063 60.651 41.7935 59.7844 41.8868C58.7338 42.0074 57.6759 42.0521 56.6189 42.0203C56.0111 41.9653 55.3988 41.9881 54.7967 42.0881C53.5382 42.3677 52.5275 43.3805 51.5846 44.3552C51.3261 44.5777 51.1408 44.8731 51.0528 45.2027C51.0412 45.2956 51.0412 45.3895 51.0528 45.4824C51.0431 45.7357 51.0864 45.9883 51.1799 46.224C51.4648 47.1 51.8713 47.9316 52.3876 48.6945C52.7733 49.2539 53.2203 49.7793 53.4471 50.4404C53.5511 50.7659 53.6061 51.1051 53.6102 51.4469C53.5983 51.81 53.5608 52.1718 53.4979 52.5296C53.3314 53.5162 53.0579 54.4817 52.6822 55.409C52.483 55.9006 52.2584 56.39 52.2054 56.9282C52.1991 57.0355 52.1991 57.143 52.2054 57.2503C52.1419 58.9093 53.7967 60.1064 54.1124 61.757C54.1374 61.8935 54.153 62.0315 54.159 62.1702C54.123 63.1999 53.5445 64.2063 52.6928 64.6047C52.7669 64.6343 52.8432 64.6598 52.9195 64.6873C52.8463 64.7338 52.7706 64.7762 52.6928 64.8144C52.8474 64.8738 53.0063 64.9246 53.1674 64.9712C52.1931 65.8247 51.375 66.8414 50.7498 67.9757C47.8979 73.385 28.4599 83.996 28.4599 83.996C28.4599 83.996 28.5701 84.0575 28.7481 84.1634C28.676 84.2079 28.5997 84.2588 28.515 84.316C26.8327 85.4517 22.8832 88.7655 26.4534 92.9438C26.4534 92.9438 29.2396 88.4837 31.1911 86.5873C31.28 86.5026 31.3648 86.4242 31.4474 86.35C31.5356 86.4853 31.5633 86.6512 31.5237 86.8077L44.3065 79.5253C44.3065 79.5253 48.8492 76.3005 50.1163 75.5716C50.5528 75.3216 51.6651 74.6267 52.9957 74.3194L52.8474 74.3851C53.325 74.2516 53.8178 74.1804 54.3136 74.1732C56.5765 74.2092 59.0259 75.8895 59.8353 82.5447C60.918 91.4564 60.4158 93.0624 60.0683 93.2828C60.0253 93.2795 59.9826 93.2717 59.9412 93.2595C59.9515 93.2692 59.9629 93.2777 59.9751 93.2849C59.9277 93.2819 59.8807 93.2733 59.8353 93.2595C59.8849 93.3067 59.9557 93.3244 60.0217 93.3061C60.0694 93.32 60.1207 93.3139 60.1637 93.2892C60.2124 93.2892 60.2696 93.2892 60.3353 93.2892C60.3353 93.3697 60.3226 93.4544 60.3162 93.5371C60.2993 93.5371 60.2145 93.5858 60.3162 93.5921C60.2908 94.0943 60.2929 94.6515 60.3162 95.213C59.1912 95.2766 58.0682 95.3444 57.0829 95.4058L57.1719 94.9333L57.2122 94.7215C58.0745 94.6515 58.8945 94.3952 58.9899 93.6832C59.2017 92.1238 57.0829 91.2911 55.2925 91.1873C53.5021 91.0835 42.7216 91.8123 42.7216 91.8123C42.7216 91.8123 41.105 93.9311 46.2304 94.5901C46.3829 94.6706 46.5418 94.7596 46.7029 94.8528C48.7094 96.0139 51.4342 98.1497 52.7373 99.2028L52.9195 99.3489L52.3347 99.8214C55.5129 100.55 58.5682 112.827 60.2569 118.444C61.9456 124.061 65.6451 123.853 68.7089 123.022C71.5798 122.241 71.9464 113.789 71.9803 112.727C71.9803 112.655 71.9803 112.619 71.9803 112.619L77.0845 118.999L77.4723 119.484C77.6227 119.562 77.7689 119.637 77.913 119.706C81.7798 121.573 86.0513 117.997 84.8351 113.928C83.6083 109.818 81.7014 103.743 80.4301 101.175C79.3707 99.0248 77.9914 95.4546 77.1566 93.2129C77.2647 93.1684 77.3702 93.1174 77.4723 93.0603C77.4723 93.0603 77.4532 92.9607 77.4193 92.7764L77.4723 92.7489C77.4723 92.7489 76.2433 86.2759 76.1755 81.6802C76.1755 81.5997 76.1755 81.5191 76.1755 81.4386C76.1755 81.3581 76.1755 81.339 76.1755 81.2882C77.0993 81.0763 77.6841 80.9916 77.6841 80.9916L77.7011 80.7924L77.593 80.8157L78.1058 74.8534C78.1058 74.8534 79.9915 70.7874 78.5486 69.0923C78.1093 68.5947 77.816 67.9854 77.7011 67.3316C77.4596 65.7721 77.7011 63.1766 81.0636 61.0175C86.2399 57.6889 88.249 54.9832 88.249 54.9832C88.249 54.9832 88.3587 52.9957 85.189 52.0592ZM74.9085 56.1951V53.4407C75.8683 53.394 76.8493 53.5063 77.8134 53.4407C78.2875 53.4073 78.7573 53.3278 79.216 53.2033L79.4491 53.3665C78.0386 54.4655 76.5167 55.4135 74.9085 56.1951ZM60.2336 99.3786C60.6129 99.6456 60.9943 99.9231 61.3693 100.201C61.6024 101.559 61.8079 102.519 61.8227 102.584C61.3944 101.468 60.8624 100.395 60.2336 99.3786Z" fill="url(#paint1_linear)"/>
<path d="M68.5309 97.6391L68.302 98.8807L68.1262 99.8299L67.8062 101.567L64.7043 103.739C64.7043 103.739 64.4246 103.5 63.9627 103.123C62.6914 102.076 60.0196 99.9444 58.0576 98.8002C57.5529 98.4785 57.0069 98.2269 56.4346 98.0522L68.5309 97.6391Z" fill="#FFBDC6"/>
<path opacity="0.1" d="M68.5309 97.6391L68.302 98.8807C67.6179 98.9179 66.9319 98.8823 66.2553 98.7748L59.0174 98.8786C58.6763 98.8574 58.3563 98.832 58.0576 98.8002C57.5529 98.4785 57.0069 98.2269 56.4346 98.0522L68.5309 97.6391Z" fill="black"/>
<path d="M66.2553 98.5629C66.2553 98.5629 69.8721 99.1837 70.084 97.6391C70.2959 96.0945 68.2215 95.2597 66.4651 95.1558C64.7086 95.052 54.1611 95.7767 54.1611 95.7767C54.1611 95.7767 52.3008 98.2578 59.0195 98.6731L66.2553 98.5629Z" fill="#474463"/>
<path opacity="0.1" d="M68.5309 97.6391L68.302 98.8807L68.1262 99.8299L67.8062 101.567L64.7043 103.739C64.7043 103.739 64.4246 103.5 63.9627 103.123C62.6914 102.076 60.0196 99.9444 58.0576 98.8002C57.5529 98.4785 57.0069 98.2269 56.4346 98.0522L68.5309 97.6391Z" fill="black"/>
<path opacity="0.1" d="M68.5309 97.6391L68.302 98.8807C67.6179 98.9179 66.9319 98.8823 66.2553 98.7748L59.0174 98.8786C58.6763 98.8574 58.3563 98.832 58.0576 98.8002C57.5529 98.4785 57.0069 98.2269 56.4346 98.0522L68.5309 97.6391Z" fill="black"/>
<path d="M66.2553 98.5587C66.2553 98.5587 69.8742 99.1773 70.0818 97.6264C70.2895 96.0754 68.2194 95.2491 66.4629 95.1452C64.7064 95.0414 54.159 95.7661 54.159 95.7661C54.159 95.7661 52.2987 98.2472 59.0174 98.6604L66.2553 98.5587Z" fill="black"/>
<path d="M74.1648 47.5927H55.2438V70.0288H74.1648V47.5927Z" fill="#474463"/>
<path opacity="0.1" d="M74.1648 47.6944H55.2438V70.1305H74.1648V47.6944Z" fill="black"/>
<path d="M33.0683 86.0005C32.7569 86.0788 32.3585 86.3797 31.9157 86.8162C30.0088 88.7041 27.2776 93.1345 27.2776 93.1345C23.7858 88.9753 27.6505 85.689 29.2968 84.5597C29.6973 84.2863 29.9664 84.1359 29.9664 84.1359L33.0683 86.0005Z" fill="#FFBDC6"/>
<path d="M68.3232 54.6738C68.3232 54.6738 69.2534 61.187 72.4591 62.738C75.6649 64.289 68.3232 67.1875 68.3232 67.1875L58.2949 63.4626C58.2949 63.4626 63.9818 61.6002 62.8439 56.121L68.3232 54.6738Z" fill="#FFBDC6"/>
<path d="M57.5702 93.8591L57.3435 95.0965L57.1592 96.05L56.8392 97.7874L53.7373 99.9571C53.7373 99.9571 53.4576 99.7198 52.9957 99.3426C51.7244 98.2959 49.0526 96.1644 47.0885 95.0202C46.5841 94.6982 46.038 94.4465 45.4655 94.2723L57.5702 93.8591Z" fill="#FFBDC6"/>
<path opacity="0.1" d="M57.5702 93.8591L57.3435 95.0965C56.6594 95.1337 55.9733 95.0982 55.2967 94.9906L48.0589 95.0944C47.7178 95.0732 47.3957 95.0478 47.0969 95.016C46.5925 94.6939 46.0465 94.4423 45.4739 94.2681L57.5702 93.8591Z" fill="black"/>
<path d="M55.2967 94.7893C55.2967 94.7893 58.9157 95.408 59.1212 93.8591C59.3267 92.3103 57.2609 91.4797 55.5023 91.3759C53.7437 91.272 43.2004 91.9967 43.2004 91.9967C43.2004 91.9967 41.338 94.4778 48.0589 94.8931L55.2967 94.7893Z" fill="black"/>
<path opacity="0.1" d="M57.1592 96.05L56.8393 97.7874L53.7373 99.9571C53.7373 99.9571 53.4576 99.7198 52.9957 99.3426L57.0977 95.9779L57.1592 96.05Z" fill="black"/>
<path d="M77.646 119.719C77.504 119.649 77.3621 119.577 77.2222 119.507L76.8408 119.026L71.8383 112.683C71.8383 112.683 71.8383 112.721 71.8383 112.793C71.8044 113.852 71.4442 122.247 68.6347 123.022C65.6366 123.849 62.0197 124.056 60.3713 118.473C58.7229 112.89 55.7099 100.69 52.6165 99.9655L57.2185 96.1919C57.2185 96.1919 60.2654 99.7558 61.507 103.167C61.4604 102.955 59.3564 93.1239 61.0832 91.3843H76.1798C76.1798 91.3843 78.5105 98.0226 80.108 101.311C81.3518 103.864 83.2185 109.901 84.4198 113.986C85.6106 118.02 81.4302 121.582 77.646 119.719Z" fill="black"/>
<path opacity="0.1" d="M77.2159 93.2383C74.8852 94.6177 64.6535 94.0562 61.3248 93.8316L60.418 93.7659C60.3205 93.7659 60.4328 93.7108 60.4328 93.7108L60.526 92.7722L63.0071 86.4666L76.2921 78.7626C76.023 79.5741 75.934 80.8157 75.9552 82.2374C76.0167 86.8056 77.2159 93.2383 77.2159 93.2383Z" fill="black"/>
<path d="M77.2159 92.9268C74.8852 94.3062 64.6535 93.7447 61.3248 93.5201L60.4179 93.4566L60.2675 93.4438L60.4328 93.4015L61.2506 93.1896L63.0071 86.1594L76.2921 78.4575C76.023 79.269 75.934 80.5106 75.9552 81.9323C76.0166 86.4962 77.2159 92.9268 77.2159 92.9268Z" fill="#F2F1F2"/>
<path opacity="0.1" d="M75.9467 81.9281C73.2452 82.551 67.2999 84.3796 65.0158 88.793C63.4924 91.7318 62.2105 92.9925 61.3163 93.5201L60.4095 93.4566C60.4154 93.4385 60.4204 93.4201 60.4243 93.4015L61.2422 93.1896L62.9987 86.1594L76.2836 78.4575C76.0167 79.2647 75.9255 80.5064 75.9467 81.9281Z" fill="black"/>
<path opacity="0.1" d="M29.9664 84.1401L33.0683 86.0005C32.7568 86.0789 32.3585 86.3797 31.9157 86.8162C31.6572 86.0619 30.0342 85.0088 29.2968 84.5597C29.6973 84.2906 29.9664 84.1401 29.9664 84.1401Z" fill="black"/>
<path opacity="0.1" d="M59.8565 93.5773C59.7867 93.6136 59.7017 93.6017 59.6446 93.5477C59.7134 93.5678 59.7848 93.5778 59.8565 93.5773Z" fill="black"/>
<path d="M66.8761 62.3248C66.8761 62.3248 64.0835 62.6342 62.1194 60.5662C62.1194 60.5662 53.856 62.9457 51.057 68.3211C48.2581 73.6965 29.2333 84.2439 29.2333 84.2439C29.2333 84.2439 32.5429 86.1043 32.2314 87.0344L44.743 79.7966C44.743 79.7966 49.1925 76.5929 50.4278 75.8683C51.663 75.1436 58.4941 70.6984 59.9412 82.7947C61.3884 94.891 59.9412 93.4438 59.9412 93.4438C59.9412 93.4438 62.0092 94.1685 65.0073 88.3778C68.0054 82.587 77.3091 81.2437 77.3091 81.2437L77.8261 75.1458C77.8261 75.1458 79.6716 71.1031 78.2499 69.425C77.8192 68.9281 77.5326 68.3229 77.4214 67.6748C77.1862 66.126 77.4214 63.5453 80.7141 61.401C85.7801 58.0915 87.7447 55.4048 87.7447 55.4048C87.7447 55.4048 87.8481 53.4385 84.7461 52.5084C81.6442 51.5782 69.0309 46.5121 69.0309 46.5121L68.6072 48.2708L78.5592 55.2946C78.5592 55.2946 73.597 59.3204 69.6602 59.2229C69.6602 59.2229 70.3912 62.221 66.8761 62.3248Z" fill="#5A50EF"/>
<path opacity="0.1" d="M68.7915 57.5088C68.5469 56.68 68.3558 55.8364 68.2194 54.9832L62.7401 56.4303C62.9817 57.4763 62.9385 58.5679 62.6151 59.5916C64.9054 60.2029 67.339 59.3822 68.7915 57.5088Z" fill="black"/>
<path d="M64.2403 59.4814C67.4945 59.4814 70.1327 56.8433 70.1327 53.589C70.1327 50.3347 67.4945 47.6966 64.2403 47.6966C60.986 47.6966 58.3478 50.3347 58.3478 53.589C58.3478 56.8433 60.986 59.4814 64.2403 59.4814Z" fill="#FFBDC6"/>
<path opacity="0.1" d="M67.374 40.1875C69.0097 40.3718 70.5628 41.0753 72.1731 41.4588C72.5754 41.5846 73.0038 41.6014 73.4147 41.5075C74.0398 41.3126 74.5483 40.66 75.1967 40.6791C75.595 40.6791 75.9488 40.963 76.2773 41.2236C76.8044 41.6261 77.3003 42.0681 77.7604 42.5457C78.8707 43.7513 79.5593 45.3743 80.5721 46.6859C81.5849 47.9974 83.1825 49.0166 84.6211 48.4148C83.6422 52.2287 80.4365 55.1336 76.968 55.3709C75.5844 55.4641 74.1669 55.176 72.8278 55.5828C72.4941 55.7185 72.1421 55.8042 71.7832 55.837C71.012 55.837 70.3912 55.1294 69.9102 54.4407C68.783 52.822 67.891 50.9828 66.6218 49.506C66.1981 49.0187 65.7086 48.5547 65.1153 48.4657C64.5221 48.3767 63.9775 48.6585 63.45 48.9318C62.5791 49.3831 61.6892 49.8514 61.0133 50.6269C60.3374 51.4024 59.9115 52.555 60.1912 53.5932C60.3417 54.1568 60.6849 54.6653 60.6913 55.2544C60.704 56.193 59.8734 56.8816 59.7103 57.7969C59.6735 58.1814 59.66 58.5677 59.67 58.9538C59.598 60.2081 58.778 61.2358 57.922 62.024C57.5872 62.3312 57.2185 62.6596 57.1211 63.1342C57.0554 63.4563 57.1211 63.7995 57.0787 64.1258C56.9537 64.9394 56.1422 65.3526 55.4239 65.4607C54.5847 65.5829 53.728 65.4813 52.9407 65.1662C53.945 64.6894 54.5637 63.3398 54.3306 62.1278C54.0107 60.4497 52.3241 59.2462 52.4682 57.5363C52.5477 57.0124 52.7048 56.5033 52.9343 56.0256C53.3021 55.1036 53.5692 54.1446 53.731 53.1652C53.8581 52.4067 53.9195 51.6036 53.6822 50.8833C53.4704 50.2243 53.0275 49.7031 52.6525 49.1479C52.1436 48.392 51.7422 47.5691 51.4596 46.7028C51.3564 46.4471 51.3171 46.17 51.3452 45.8956C51.4277 45.5667 51.6088 45.271 51.8643 45.048C52.786 44.0797 53.7712 43.0712 55.0065 42.7957C55.5957 42.6961 56.1953 42.6726 56.7905 42.7258C57.8256 42.7594 58.8618 42.7155 59.8904 42.5945C60.7379 42.4949 62.1702 42.5097 62.8885 41.9588C63.558 41.4439 63.9352 40.8019 64.7594 40.4756C65.5945 40.1684 66.492 40.0695 67.374 40.1875Z" fill="black"/>
<path opacity="0.1" d="M70.6497 101.044C70.6497 101.044 74.0609 107.765 73.027 109.831L70.6497 101.044Z" fill="black"/>
<path opacity="0.1" d="M76.8345 119.018L71.8383 112.683C71.8383 112.683 71.8383 112.721 71.8383 112.793C71.8383 112.793 71.5502 110.742 72.5015 111.43C74.5864 112.939 77.9214 115.412 77.9935 115.838C78.0655 116.263 77.3176 117.965 76.8345 119.018Z" fill="black"/>
<g opacity="0.1">
<path opacity="0.1" d="M69.7704 59.2229C69.7704 59.2229 70.1942 60.9688 68.8297 61.8418C70.9273 61.4837 71.0205 59.8501 70.9485 59.1403C70.559 59.2027 70.1648 59.2303 69.7704 59.2229Z" fill="black"/>
<path opacity="0.1" d="M30.4834 83.8287C30.4834 83.8287 49.5061 73.2833 52.3071 67.9079C54.3094 64.0496 59.1361 61.7358 61.6998 60.7357C59.831 61.3714 53.5339 63.7678 51.1693 68.3211C48.3789 73.6965 29.3456 84.2439 29.3456 84.2439L30.4834 83.8287Z" fill="black"/>
<path opacity="0.1" d="M73.4741 58.4008C76.7116 57.3944 79.8051 54.8815 79.8051 54.8815L69.8721 47.847L70.0988 46.8851L69.1475 46.5037L68.7343 48.2623L78.6609 55.2925C77.0701 56.5433 75.3273 57.5877 73.4741 58.4008Z" fill="black"/>
<path opacity="0.1" d="M73.5313 82.2269C74.7992 81.7942 76.1002 81.4654 77.4214 81.2437L77.4384 81.0446C76.1075 81.3371 74.8012 81.7324 73.5313 82.2269Z" fill="black"/>
<path opacity="0.1" d="M61.5007 93.0582H61.4096C61.3397 93.0939 61.255 93.082 61.1977 93.0286C61.2665 93.0486 61.3379 93.0586 61.4096 93.0582C61.7486 92.8612 62.2571 91.3166 61.1977 82.3794C60.0578 72.8447 55.5722 73.5885 53.1187 74.686C55.6273 73.9953 59.0789 74.5928 60.0599 82.7926C61.1299 91.7297 60.6192 93.2743 60.2718 93.4714C60.7126 93.4549 61.1394 93.3114 61.5007 93.0582Z" fill="black"/>
<path opacity="0.1" d="M60.2718 93.4735C60.2001 93.4739 60.1287 93.4639 60.0599 93.4438C60.1172 93.4973 60.2019 93.5091 60.2718 93.4735Z" fill="black"/>
</g>
<path d="M67.374 39.9798C69.0097 40.1663 70.5628 40.8676 72.1731 41.2511C72.5756 41.3763 73.004 41.3923 73.4147 41.2977C74.0398 41.1049 74.5483 40.4502 75.1967 40.4693C75.595 40.482 75.9489 40.7532 76.2773 41.0138C76.804 41.4169 77.2997 41.8589 77.7604 42.336C78.8707 43.5416 79.5593 45.1646 80.5721 46.4761C81.5849 47.7877 83.1825 48.8068 84.6211 48.2051C83.6423 52.0189 80.4365 54.9238 76.968 55.1611C75.5844 55.2565 74.1669 54.9683 72.8278 55.373C72.4944 55.5097 72.1423 55.5955 71.7833 55.6273C71.012 55.6273 70.3912 54.9196 69.9102 54.231C68.783 52.6122 67.891 50.7752 66.6218 49.2984C66.1981 48.8089 65.7086 48.3449 65.1154 48.2559C64.5221 48.1669 63.9776 48.4508 63.45 48.7242C62.5791 49.1755 61.6892 49.6416 61.0133 50.4192C60.3374 51.1968 59.9116 52.3452 60.1912 53.3856C60.3417 53.9492 60.6849 54.4577 60.6913 55.0467C60.704 55.9875 59.8734 56.674 59.7103 57.5893C59.6734 57.9737 59.66 58.3601 59.67 58.7462C59.598 60.0005 58.778 61.026 57.922 61.8163C57.5872 62.1214 57.2186 62.452 57.1211 62.9245C57.0554 63.2486 57.1211 63.5898 57.0787 63.9182C56.9537 64.7318 56.1422 65.145 55.4239 65.2509C54.5847 65.3751 53.7275 65.2735 52.9407 64.9564C53.945 64.4818 54.5637 63.13 54.3306 61.9201C54.0107 60.242 52.3241 59.0364 52.4682 57.3287C52.5475 56.8047 52.7046 56.2955 52.9343 55.818C53.3018 54.8951 53.5689 53.9354 53.731 52.9554C53.8581 52.199 53.9196 51.396 53.6823 50.6735C53.4704 50.0166 53.0275 49.4933 52.6525 48.9382C52.1441 48.1828 51.7426 47.3607 51.4596 46.4952C51.3569 46.2385 51.3177 45.9609 51.3452 45.6858C51.4302 45.361 51.6111 45.0693 51.8643 44.8489C52.786 43.8806 53.7712 42.8741 55.0065 42.5966C55.5959 42.4987 56.1954 42.4759 56.7906 42.5288C57.8257 42.5613 58.8617 42.5174 59.8904 42.3974C60.7379 42.2978 62.1702 42.3105 62.8885 41.7618C63.558 41.249 63.9352 40.6049 64.7594 40.2786C65.594 39.9692 66.4911 39.8667 67.374 39.9798Z" fill="black"/>
<path d="M106.193 109.718C112.754 109.718 118.073 104.399 118.073 97.8382C118.073 91.277 112.754 85.9581 106.193 85.9581C99.6315 85.9581 94.3126 91.277 94.3126 97.8382C94.3126 104.399 99.6315 109.718 106.193 109.718Z" fill="white"/>
<path d="M114.32 80H97.6801C93.4385 80 90.0001 83.4385 90.0001 87.68V104.32C90.0001 108.562 93.4385 112 97.6801 112H114.32C118.562 112 122 108.562 122 104.32V87.68C122 83.4385 118.562 80 114.32 80Z" fill="#F35C58"/>
<path fill-rule="evenodd" clip-rule="evenodd" d="M101.888 94.1706C100.716 93.4594 99.9348 93.297 99.0973 93.297C98.6323 93.297 98.1115 93.4187 98.0368 93.9065C97.9811 94.333 98.3532 94.4347 99.1347 94.6181C100.567 94.9429 102.018 95.3699 102.204 96.9754L102.986 92.7684L101.888 94.1706ZM112.679 94.2926L114.819 91.2846H118L113.498 97.0771L112.828 100.695H110.112L110.875 96.6503L109.479 94.0283L107.656 96.2032L110.112 100.695H106.838L104.921 96.9552L104.269 100.695H101.516L101.907 98.5406C101.162 100.39 99.7673 101 97.8698 101C96.2697 101 94.7998 100.471 94.0001 99.5159L95.5068 97.5851C96.1579 98.2763 97.1626 98.642 98.223 98.642C98.9671 98.642 99.4137 98.3374 99.4322 97.9305C99.4508 97.2397 98.3532 97.138 97.3486 96.8335C96.2137 96.4877 95.0045 95.6546 95.3207 93.9065C95.5627 92.5649 96.6602 91 99.4508 91C101.014 91 102.167 91.386 103.116 92.1178L103.264 91.2846H106.019L105.218 95.3699L108.456 91.2846H111.191L112.679 94.2926Z" fill="white"/>
<defs>
<linearGradient id="paint0_linear" x1="59.9158" y1="94.2581" x2="59.9158" y2="94.2438" gradientUnits="userSpaceOnUse">
<stop stop-color="#808080" stop-opacity="0.25"/>
<stop offset="0.54" stop-color="#808080" stop-opacity="0.12"/>
<stop offset="1" stop-color="#808080" stop-opacity="0.1"/>
</linearGradient>
<linearGradient id="paint1_linear" x1="56.6297" y1="123.45" x2="56.6297" y2="39.4205" gradientUnits="userSpaceOnUse">
<stop stop-color="#808080" stop-opacity="0.25"/>
<stop offset="0.54" stop-color="#808080" stop-opacity="0.12"/>
<stop offset="1" stop-color="#808080" stop-opacity="0.1"/>
</linearGradient>
</defs>
</svg>
